<?xml version="1.0" standalone="no"?>
<!DOCTYPE svg PUBLIC "-//W3C//DTD SVG 20010904//EN"
 "http://www.w3.org/TR/2001/REC-SVG-20010904/DTD/svg10.dtd">
<svg version="1.0" xmlns="http://www.w3.org/2000/svg"
 width="326.000000pt" height="326.000000pt" viewBox="0 0 326.000000 326.000000"
 preserveAspectRatio="xMidYMid meet">
<metadata>
Created by potrace 1.14, written by Peter Selinger 2001-2017
</metadata>
<g transform="translate(0.000000,326.000000) scale(0.100000,-0.100000)"
fill="#000000" stroke="none">
<path d="M143 3241 c-157 -74 -191 -279 -63 -394 98 -88 233 -88 324 0 58 57
71 88 71 174 0 67 -3 81 -30 125 -44 69 -106 105 -192 111 -53 3 -77 -1 -110
-16z"/>
<path d="M2928 3232 c-98 -33 -161 -121 -161 -226 -1 -256 351 -331 456 -96
61 138 -23 301 -170 329 -60 12 -71 11 -125 -7z"/>
<path d="M880 2560 c-172 -47 -239 -254 -125 -387 143 -167 417 -66 417 153 1
88 -52 173 -130 213 -42 22 -121 32 -162 21z"/>
<path d="M2269 2550 c-108 -26 -180 -119 -180 -230 -1 -190 204 -302 365 -200
130 83 146 266 33 372 -57 53 -143 76 -218 58z"/>
<path d="M868 1861 c-103 -33 -170 -125 -170 -230 1 -124 101 -230 221 -236
97 -5 179 41 225 125 63 116 19 262 -97 322 -45 22 -137 32 -179 19z"/>
<path d="M1533 1848 c-90 -43 -137 -117 -137 -218 0 -253 331 -327 450 -100
27 52 25 153 -4 208 -59 112 -199 162 -309 110z"/>
<path d="M2282 1859 c-184 -33 -258 -262 -129 -397 118 -124 319 -89 390 67
77 171 -75 363 -261 330z"/>
<path d="M854 1159 c-172 -66 -211 -285 -71 -404 87 -75 217 -75 304 0 131
112 108 316 -44 394 -56 28 -130 32 -189 10z"/>
<path d="M2246 1155 c-54 -19 -106 -65 -133 -118 -74 -148 21 -326 185 -344
200 -21 336 201 225 368 -59 90 -175 129 -277 94z"/>
<path d="M180 488 c-54 -14 -112 -59 -144 -112 -25 -39 -30 -59 -30 -109 0
-80 16 -124 61 -171 49 -50 85 -67 155 -73 136 -13 242 80 255 224 14 151
-146 281 -297 241z"/>
<path d="M2905 456 c-144 -67 -181 -234 -81 -370 59 -79 210 -105 297 -51 85
54 121 118 121 214 -2 126 -109 231 -237 231 -31 0 -69 -9 -100 -24z"/>
</g>
</svg>
